<svg xmlns="http://www.w3.org/2000/svg" viewBox="345 335 1130 354" fill="currentColor" role="img" aria-label="BILD">
<path d="M 315.07,255.192 H 262.631 V 513.248 H 315.07 Z" transform="matrix(1.3333333,0,0,-1.3333333,0,1024)"/>
<path d="m 586.926,255.228 h -52.439 v 258.056 h 52.439 z" transform="matrix(1.3333333,0,0,-1.3333333,0,1024)"/>
<path d="m 691.804,255.228 h -52.439 v 258.056 h 52.439 z" transform="matrix(1.3333333,0,0,-1.3333333,0,1024)"/>
<path d="m 908.461,254.8 h -52.439 v 258.056 h 52.439 z" transform="matrix(1.3333333,0,0,-1.3333333,0,1024)"/>
<path d="M 639.365,300.887 H 818.762 V 254.8 H 639.365 Z" transform="matrix(1.3333333,0,0,-1.3333333,0,1024)"/>
<path d="m 0,0 c 41.799,-1.822 96.997,7.899 131.575,-21.17 31.299,-26.312 31.067,-78.378 -4.393,-99.37 l -10.57,-7.165 c 24.968,-4.421 41.231,-17.746 48.168,-43.816 7.446,-27.982 -4.703,-55.591 -29.113,-70.21 C 96.467,-265.208 43.718,-255.904 0,-257.966 v 46.519 h 74.052 c 21.191,0 40.431,15.465 34.573,37.935 -4.271,16.385 -22.167,21.111 -37.121,22.107 -23.245,1.548 -48.096,-1.137 -71.504,0.009 v 46.518 h 69.82 c 1.77,0 9.485,2.776 11.459,3.773 18.892,9.544 20.326,41.726 -0.045,50.769 -2.41,1.071 -10.881,3.818 -13.106,3.818 l -68.128,0 z" transform="matrix(1.3333333,0,0,-1.3333333,438.49253,339.69227)"/>
<path d="m 0,0 c 45.483,1.34 91.315,-0.452 129.751,-27.222 68.363,-47.612 68.416,-155.237 0.522,-203.197 C 92.261,-257.271 45.001,-258.868 0,-257.966 v 46.519 c 32.879,-0.333 65.573,-2.473 93.36,17.918 39.165,28.741 40.784,95.069 3.975,126.299 C 69.526,-43.636 34.327,-46.117 0,-46.518 Z" transform="matrix(1.3333333,0,0,-1.3333333,1229.6815,340.34613)"/>
</svg>
