<svg xmlns="http://www.w3.org/2000/svg" viewBox="0 0 32 32">
<rect width="32" height="32" rx="6" fill="#053D5E"/>
<g transform="translate(-10.68 -12.26) scale(0.05523)" fill="#ffffff">
<path d="M 315.07,255.192 H 262.631 V 513.248 H 315.07 Z" transform="matrix(1.3333333,0,0,-1.3333333,0,1024)"/>
<path d="m 0,0 c 41.799,-1.822 96.997,7.899 131.575,-21.17 31.299,-26.312 31.067,-78.378 -4.393,-99.37 l -10.57,-7.165 c 24.968,-4.421 41.231,-17.746 48.168,-43.816 7.446,-27.982 -4.703,-55.591 -29.113,-70.21 C 96.467,-265.208 43.718,-255.904 0,-257.966 v 46.519 h 74.052 c 21.191,0 40.431,15.465 34.573,37.935 -4.271,16.385 -22.167,21.111 -37.121,22.107 -23.245,1.548 -48.096,-1.137 -71.504,0.009 v 46.518 h 69.82 c 1.77,0 9.485,2.776 11.459,3.773 18.892,9.544 20.326,41.726 -0.045,50.769 -2.41,1.071 -10.881,3.818 -13.106,3.818 l -68.128,0 z" transform="matrix(1.3333333,0,0,-1.3333333,438.49253,339.69227)"/>
</g>
</svg>
